<?xml version="1.0" encoding="UTF-8" standalone="no"?>
<!-- Created with Inkscape (http://www.inkscape.org/) -->

<svg
   width="270.93332mm"
   height="270.93332mm"
   viewBox="0 0 270.93332 270.93332"
   version="1.1"
   id="svg1"
   xml:space="preserve"
   xmlns="http://www.w3.org/2000/svg"
   xmlns:svg="http://www.w3.org/2000/svg"><defs
     id="defs1" /><g
     id="layer1"><path
       d="M 92.597631,228.66848 C 85.659886,227.3652 77.333809,223.50522 69.77023,218.08564 47.414992,202.06737 27.223753,170.59674 14.07225,131.2732 5.5564767,105.8107 -0.52421187,74.451277 0.03573298,58.883839 0.24145257,53.1645 1.1857893,51.23959 4.6138424,49.551966 l 1.8858086,-0.928381 37.640691,-0.04953 37.640692,-0.04952 0.169177,-2.101891 c 0.20661,-2.566923 0.845751,-3.967448 2.511119,-5.502536 1.941561,-1.789671 4.204596,-2.528355 7.8737,-2.570092 l 3.047226,-0.03467 1.933119,-2.56298 1.933111,-2.562983 -0.726084,-1.147275 c -2.426732,-3.834389 -2.083445,-8.250772 0.803911,-10.342364 4.898537,-3.548476 15.631867,-0.607326 21.305327,5.838103 2.0062,2.27915 2.88696,4.391273 2.88696,6.92319 0,1.911196 -0.10178,2.295876 -0.91244,3.44934 -1.36737,1.94551 -3.69303,3.030846 -6.84955,3.196519 l -2.47981,0.130156 -1.47245,2.775478 -1.47246,2.77548 0.77051,0.91567 0.77046,0.915673 10.70227,0.01383 c 22.25385,0.02876 20.18168,-0.04182 21.0536,0.717092 0.666,0.579676 0.84199,1.123294 1.23948,3.828444 2.84851,19.386755 9.36507,43.780613 16.48395,61.705501 10.08608,25.39614 23.62791,43.47463 37.38409,49.90815 1.56891,0.73375 3.19037,1.4969 3.60323,1.69591 0.4581,0.2208 0.91711,0.83951 1.17768,1.58732 0.40077,1.15025 0.38234,1.31552 -0.30027,2.6919 -0.39999,0.80651 -1.06507,1.62956 -1.47795,1.82897 -0.41286,0.19943 -1.76409,0.8079 -3.00269,1.35218 -8.67456,3.81182 -21.04842,11.20598 -42.03782,25.12037 -17.76716,11.77825 -20.53379,13.56895 -26.42376,17.10277 -10.12446,6.07437 -19.1822,10.26256 -26.13448,12.08424 -3.26934,0.85666 -8.233615,1.03405 -11.542559,0.41245 z"
       id="path20"
       style="fill:#ffffff" /><path
       style="fill:#000000;stroke-width:1.13488"
       d="M 92.597631,228.66848 C 85.659886,227.3652 77.333809,223.50522 69.77023,218.08564 47.414992,202.06737 27.223753,170.59674 14.07225,131.2732 5.5564767,105.8107 -0.52421187,74.451277 0.03573298,58.883839 0.24145257,53.1645 1.1857893,51.23959 4.6138424,49.551966 l 1.8858086,-0.928381 37.640691,-0.04953 37.640692,-0.04952 0.169177,-2.101891 c 0.20661,-2.566923 0.845751,-3.967448 2.511119,-5.502536 1.941561,-1.789671 4.204596,-2.528355 7.8737,-2.570092 l 3.047226,-0.03467 1.933119,-2.56298 1.933111,-2.562983 -0.726084,-1.147275 c -2.426732,-3.834389 -2.083445,-8.250772 0.803911,-10.342364 4.898537,-3.548476 15.631867,-0.607326 21.305327,5.838103 2.0062,2.27915 2.88696,4.391273 2.88696,6.92319 0,1.911196 -0.10178,2.295876 -0.91244,3.44934 -1.36737,1.94551 -3.69303,3.030846 -6.84955,3.196519 l -2.47981,0.130156 -1.47245,2.775478 -1.47246,2.77548 0.77051,0.91567 0.77046,0.915673 10.70227,0.01383 c 22.25385,0.02876 20.18168,-0.04182 21.0536,0.717092 0.666,0.579676 0.84199,1.123294 1.23948,3.828444 2.84851,19.386755 9.36507,43.780613 16.48395,61.705501 10.08608,25.39614 23.62791,43.47463 37.38409,49.90815 1.56891,0.73375 3.19037,1.4969 3.60323,1.69591 0.4581,0.2208 0.91711,0.83951 1.17768,1.58732 0.40077,1.15025 0.38234,1.31552 -0.30027,2.6919 -0.39999,0.80651 -1.06507,1.62956 -1.47795,1.82897 -0.41286,0.19943 -1.76409,0.8079 -3.00269,1.35218 -8.67456,3.81182 -21.04842,11.20598 -42.03782,25.12037 -17.76716,11.77825 -20.53379,13.56895 -26.42376,17.10277 -10.12446,6.07437 -19.1822,10.26256 -26.13448,12.08424 -3.26934,0.85666 -8.233615,1.03405 -11.542559,0.41245 z m 12.904739,-16.04634 c -0.10197,-0.16516 -0.35966,-0.30028 -0.57243,-0.30028 -0.63883,0 -5.454334,-3.15024 -7.428719,-4.85976 -5.146098,-4.45582 -9.104429,-11.83033 -9.754206,-18.17254 -0.214427,-2.09301 -0.267488,-2.12662 -2.249915,-1.42532 -3.845824,1.36051 -8.458302,1.77897 -13.018823,1.18115 -7.857537,-1.03004 -13.980764,-4.10954 -19.990199,-10.05351 -2.810508,-2.77989 -5.388241,-6.19785 -5.388241,-7.14461 0,-0.27091 0.468099,0.0935 1.104455,0.85998 3.214886,3.87196 7.055881,6.86179 11.957293,9.30752 5.332699,2.66093 8.3859,3.39014 14.262832,3.4064 4.167182,0.0117 4.962794,-0.0725 7.603466,-0.80467 1.622098,-0.44967 3.963162,-1.22356 5.202345,-1.71973 2.706209,-1.08363 3.227802,-1.11046 4.1261,-0.21217 0.596964,0.59697 0.713448,1.09298 0.863793,3.67832 0.350369,6.02499 2.925303,11.48457 7.616486,16.14906 4.977083,4.94877 10.872563,7.52311 17.226183,7.52204 2.89313,-5e-4 3.4125,-0.0943 6.30566,-1.13798 7.45297,-2.68881 13.88832,-6.1795 32.42918,-17.5904 14.36253,-8.83938 23.48459,-14.07938 32.11893,-18.45012 3.47362,-1.75835 6.31564,-3.25547 6.31564,-3.32694 0,-0.0715 -0.43915,-0.3592 -0.97588,-0.63947 -1.48916,-0.77755 -4.83507,-0.67578 -9.2104,0.2802 -6.98554,1.52626 -15.60843,4.16243 -20.25856,6.19345 -2.25012,0.98275 -1.99132,0.51548 0.32353,-0.5842 4.88263,-2.3195 18.85935,-6.29613 22.1291,-6.29613 1.64462,0 0.96824,-0.56535 -0.91805,-0.76736 -7.01494,-0.75123 -20.48624,2.42469 -29.63069,6.98555 -2.79501,1.39402 -3.8336,1.59123 -1.63374,0.31023 8.85568,-5.15686 18.75581,-8.10233 30.3108,-9.018 l 4.58048,-0.36298 -2.08754,-1.62169 c -2.81652,-2.18802 -7.61985,-7.05887 -10.39313,-10.53925 -16.19469,-20.32378 -29.08417,-54.508122 -36.26777,-96.186188 -0.33682,-1.954069 -0.68902,-3.67687 -0.78271,-3.828444 -0.0989,-0.160186 -5.44394,-0.275589 -12.76393,-0.275589 h -12.59364 v 1.296714 c 0,1.656995 -0.70262,4.025525 -1.5807,5.328512 -1.0437,1.548753 -3.39823,3.169292 -5.43512,3.740815 -2.50084,0.701701 -6.60597,0.630391 -9.462328,-0.164368 -1.218412,-0.339019 -2.251128,-0.577359 -2.294894,-0.529647 -0.270119,0.294453 -3.496267,5.337656 -4.4979,7.031214 -1.677089,2.835677 -2.578433,3.715381 -3.805333,3.714005 -1.769507,-0.0023 -3.552391,-1.476831 -3.991487,-3.301847 -0.200759,-0.834456 -0.166679,-0.907561 3.264492,-7.003275 L 88.593174,59.140124 86.6677,57.135293 C 85.608694,56.032636 84.485979,54.691318 84.172776,54.154587 L 83.603304,53.178709 H 46.005943 8.4085793 l -0.6026625,0.76616 c -0.876077,1.113751 -1.0533108,3.407375 -0.66485,8.603974 1.4487758,19.380898 6.6731712,44.006307 13.9698732,65.847527 9.297753,27.83099 21.544377,49.44954 35.832196,63.25335 11.443968,11.05631 24.505532,18.01039 38.500195,20.49783 3.338351,0.59338 4.119214,0.66955 7.449409,0.72681 1.79856,0.0309 2.72905,-0.059 2.60963,-0.25222 z M 86.799375,70.219041 c 0.40464,-0.536739 1.195071,-1.843664 1.75653,-2.904285 0.561446,-1.060624 1.795829,-2.742866 2.743074,-3.738321 0.947238,-0.99545 1.692963,-1.826057 1.65715,-1.845788 -0.03572,-0.01974 -0.579516,-0.330532 -1.208264,-0.690667 -0.628746,-0.360134 -1.245421,-0.654789 -1.370388,-0.654789 -0.418751,0 -5.225575,9.862046 -5.04111,10.34274 0.269499,0.702322 0.649548,0.57013 1.463008,-0.50889 z M 105.86231,59.633567 c 0.83593,-0.248244 1.70496,-0.67573 1.93117,-0.94997 0.37191,-0.450846 0.34793,-0.464836 -0.25044,-0.14603 -0.36398,0.193922 -1.44493,0.432029 -2.40217,0.529128 -5.843838,0.59278 -14.64745,-4.589939 -17.198709,-10.124953 -0.595802,-1.292608 -1.012565,-2.6872 -1.028967,-3.443109 -0.01515,-0.698785 -0.112208,-1.218195 -0.215837,-1.154243 -0.408529,0.252308 -0.870972,2.933088 -0.685884,3.976054 0.788503,4.443199 6.59597,9.657347 12.584992,11.299258 2.031265,0.55688 5.415555,0.563337 7.265845,0.01387 z m 0.31567,-7.544924 c 0.98822,-0.26483 0.84319,-0.818046 -0.15013,-0.572725 -0.95658,0.23625 -1.62588,0.764141 -0.96087,0.757878 0.23947,-0.0022 0.73943,-0.08558 1.111,-0.185153 z M 97.895417,43.40526 c 1.211148,-1.573595 2.638863,-3.491662 3.172673,-4.262373 0.53382,-0.770708 1.24489,-1.548091 1.58015,-1.727517 0.58829,-0.314851 0.57459,-0.360122 -0.39343,-1.298355 l -1.00299,-0.97213 -2.954541,3.987387 c -1.625028,2.193063 -3.286598,4.350177 -3.692388,4.793588 -0.808502,0.883436 -0.761763,1.817686 0.16233,3.24458 l 0.484299,0.747809 0.22089,-0.825955 c 0.121502,-0.454273 1.211847,-2.11344 2.423007,-3.687034 z m 20.218323,-6.578354 c 0.95413,-0.392226 1.95567,-1.364135 1.40568,-1.364135 -0.17562,0 -0.40283,0.135123 -0.50487,0.300272 -0.27936,0.451992 -3.39505,0.360739 -5.38561,-0.157737 -5.77581,-1.504405 -10.94676,-6.410347 -9.89847,-9.391165 0.38536,-1.095715 1.65079,-1.636789 3.92293,-1.677354 1.11283,-0.01987 1.85844,-0.158032 1.80322,-0.334144 -0.14699,-0.4689 -2.90807,-1.300531 -4.40464,-1.326677 -4.93023,-0.08613 -5.733094,5.023495 -1.46067,9.295931 4.15156,4.15157 10.66678,6.23995 14.52243,4.655009 z"
       id="path9" /><path
       id="path6"
       style="display:inline;fill:#000000;stroke-width:1.41904"
       d="m 141.05529,59.446195 c -0.56584,0.01912 0.33719,0.2344 0.4408,0.78264 0.0284,0.150248 0.0572,0.302536 0.0875,0.455984 2.8827,-0.123516 3.10655,-0.144295 3.88405,-0.05586 -1.07191,-0.407292 -2.96439,-1.11397 -4.15605,-1.17912 -0.0894,-0.005 -0.1754,-0.0064 -0.25624,-0.0036 z m 0.52823,1.238624 c -0.881,0.03775 -1.89399,0.08524 -3.06011,0.142078 -4.67651,0.227961 -16.27062,0.71422 -24.24485,1.080758 -4.78323,0.219871 -13.21095,0.612192 -22.244843,1.035223 -0.491326,0.534079 -0.987879,1.0643 -1.445664,1.627817 -0.413041,0.477974 -0.785304,0.982112 -1.132368,1.502743 0.465939,-0.01726 0.932074,-0.03422 1.398918,-0.05039 0.0235,1.15e-4 0.04955,-8.05e-4 0.07529,-6.08e-4 0.07696,5.9e-4 0.154457,0.01051 0.180929,0.08257 0.977799,3.480341 1.892187,6.978128 2.717079,10.494299 0.03442,0.413594 0.301935,0.857593 0.116578,1.270197 -0.507564,0.22475 -1.11864,0.191606 -1.66728,0.286584 -7.420371,0.728348 -14.906093,1.096419 -22.333481,1.680643 -4.03438,0.283523 -8.066709,0.678137 -12.102083,0.905287 -0.748597,0.02983 -1.652442,0.01932 -1.890723,-0.700066 -0.400213,-1.223322 -0.566459,-2.504572 -0.886467,-3.74805 -0.591172,-2.740358 -1.260662,-5.331328 -1.703714,-8.099628 -0.07391,-0.238786 0.201427,-0.383896 0.457197,-0.366122 4.778731,-0.304089 9.558815,-0.51541 14.338286,-0.765032 6.369964,-0.304375 12.649432,-0.643418 18.989195,-0.900431 0.489299,-1.029151 0.994968,-2.05064 1.519741,-3.061951 -4.967388,0.232909 -10.002886,0.470119 -14.618188,0.687921 -43.800036,2.067002 -64.0957475,2.967233 -66.8796094,2.967233 -1.8894103,0 -2.8773244,0.160455 -3.3643205,0.545238 -0.3791857,0.299573 -0.6945193,0.603886 -0.7012798,0.676992 -0.00682,0.07315 0.3738044,2.752623 0.8457855,5.954502 4.4638067,30.281934 11.0781142,52.611614 22.6164182,76.271274 4.177905,8.56695 10.682477,19.70701 12.653392,21.67106 0.731862,0.72933 1.36663,1.04588 1.842755,0.91865 1.263595,-0.33751 20.048636,-4.53617 37.266182,-8.32913 9.132883,-2.01192 20.901926,-4.60837 26.153795,-5.76991 5.25187,-1.16157 15.24666,-3.3646 22.21021,-4.89561 6.96357,-1.53101 20.60198,-4.54805 30.30742,-6.70436 9.70543,-2.15632 15.95731,-3.94222 16.57691,-4.06074 0.52522,-0.10056 1.38212,0.55908 1.45417,0.52943 3.1e-4,-1.5e-4 0.002,-9.9e-4 0.002,-9.9e-4 l 6.1e-4,-6.1e-4 6.1e-4,-6e-4 c 1.7e-4,-3.1e-4 4.7e-4,-9.9e-4 6e-4,-0.002 0.003,-0.0111 -0.0117,-0.0384 -0.048,-0.0863 -1.30182,-1.71829 -2.59749,-1.95696 -3.2599,-3.48514 l -1.63023,0.35642 c -0.95177,0.20773 -4.44569,0.99019 -7.76389,1.73891 -3.31819,0.74871 -6.14366,1.36129 -6.27811,1.36129 -0.26787,0 -3.69283,-5.55431 -4.84035,-7.84949 l -0.71828,-1.43715 5.68006,-1.10568 c 3.12432,-0.60795 6.66738,-1.31251 7.87254,-1.56588 0.91718,-0.19281 1.45531,-0.29867 1.80939,-0.2969 0.45521,0.002 0.60615,0.18226 0.86763,0.58592 0.26721,0.4125 1.52427,2.42435 2.79357,4.47058 l 2.04495,3.29692 c -0.17366,-0.56949 -0.27724,-1.29615 -0.28963,-2.27019 -3.03749,-4.67645 -5.56689,-8.16718 -7.87193,-11.63517 l 0.9994,2.17002 -4.82577,0.92045 c -2.65447,0.50586 -6.19153,1.1928 -7.85918,1.52704 l -3.03161,0.60778 -2.38251,-4.80939 c -1.64288,-3.31717 -2.21765,-4.85769 -1.85187,-4.96481 1.68234,-0.493 11.74522,-2.0609 14.74751,-2.34974 -0.60976,-1.1177 -1.21545,-2.29407 -1.82455,-3.55619 -1.07656,0.23836 -3.70728,0.71388 -6.62846,1.19247 -3.66484,0.60046 -7.05295,1.16223 -7.52949,1.24835 -0.72533,0.13103 -1.0172,-0.19505 -1.79297,-2.00305 -1.38397,-3.22535 -3.15701,-7.98186 -3.01641,-8.09295 0.31767,-0.25099 11.47589,-1.65302 14.93756,-1.92958 -0.16204,-0.43612 -0.32512,-0.88085 -0.48938,-1.33516 0.83199,2.21955 0.12575,-2.57318 0.0159,-2.48635 -0.11315,0.0896 -3.50244,0.60945 -7.53132,1.15542 -4.02889,0.54598 -7.55152,0.99354 -7.82822,0.99454 -0.27668,0.001 -0.72098,-0.54542 -0.98726,-1.21493 -1.01717,-2.55731 -3.11873,-9.225279 -2.94962,-9.358892 0.1864,-0.147263 11.75549,-1.449227 14.44878,-1.625996 l 1.57015,-0.103219 1.15361,3.307855 c -0.72557,-2.14905 -1.52474,-4.498412 -2.35218,-6.957545 l -0.94778,0.164543 c -0.59225,0.103114 -4.11445,0.500795 -7.82762,0.883431 -3.71312,0.382598 -6.9038,0.695207 -7.0899,0.695207 -0.42243,0 -0.62676,-0.57951 -2.19552,-6.234407 -0.69621,-2.509535 -1.38673,-4.720576 -1.28356,-4.802094 0.3176,-0.250923 13.64097,-1.139093 15.18771,-1.027331 0.33105,0.02392 0.59068,0.05233 0.79782,0.09958 -1.98579,-6.251714 -2.52715,-12.391298 -3.44993,-17.067506 z m 3.44994,17.067506 c 1.09538,3.448435 2.25257,6.931246 3.35947,10.221076 l 0.12872,-0.02248 -1.13055,-3.883449 c -0.62155,-2.135685 -1.25772,-4.428699 -1.41411,-5.095965 -0.18554,-0.79167 -0.34871,-1.083543 -0.94353,-1.219195 z m 8.3085,27.845355 c 1.4004,3.76935 2.72206,6.875 4.02977,9.58476 0.27409,-0.0607 0.44727,-0.10633 0.49909,-0.13237 0.30483,-0.15313 -0.17507,-1.77493 -1.39769,-4.72376 -1.02412,-2.47008 -1.97804,-4.61133 -2.11964,-4.75777 -2.5e-4,-2.7e-4 -9.1e-4,-3.6e-4 -0.001,-6e-4 -0.0422,-0.0314 -0.41134,-0.0181 -1.01033,0.0296 z m 5.85432,13.14095 c 1.35865,2.49044 2.73553,4.68953 4.20343,6.89804 l -1.02673,-2.22953 c -1.11473,-2.42018 -2.16548,-4.53289 -2.33517,-4.69523 -0.0357,-0.0341 -0.34013,-0.0216 -0.84153,0.0267 z m 12.5283,21.24907 0.0995,-0.0218 -0.26229,-0.42257 c 0.0488,0.15997 0.10326,0.30723 0.16271,0.44443 z M 145.4688,60.629566 c 0.45956,0.174618 0.76844,0.29429 0.80571,0.284155 l 6.3e-4,-6.06e-4 5.9e-4,-6.09e-4 h 6e-4 l 6.2e-4,-6.07e-4 v -6.06e-4 h 5.9e-4 v -6.09e-4 -6.06e-4 -6.06e-4 -6.08e-4 -6.08e-4 c -9.9e-4,-0.0027 -0.005,-0.0064 -0.008,-0.01032 -0.12798,-0.127506 -0.3463,-0.216556 -0.80086,-0.268369 z m -5.14758,2.820298 c 0.3324,0.0083 0.65552,-0.0083 0.87981,0.08743 0.56283,3.198167 1.68158,6.375714 2.39042,9.545902 -0.0272,0.320326 0.34255,0.773935 0.0236,1.032188 -4.34396,0.370818 -10.55563,0.680998 -14.90115,0.979969 -0.64152,0.169296 -0.75512,-0.493652 -0.89375,-0.840322 -0.91051,-3.089606 -2.12702,-6.206238 -2.74256,-9.363145 -0.11946,-0.307906 -0.084,-0.819131 0.46387,-0.800854 4.03848,-0.34446 9.80964,-0.513415 13.84466,-0.621742 0.26137,0.02466 0.60265,-0.02774 0.93502,-0.01942 z m -20.44153,0.961147 c 0.29019,0.0064 0.36038,0.319183 0.45354,0.506987 1.13505,3.005537 2.02723,6.084207 2.85371,9.172493 0.056,0.449485 0.33343,0.916119 0.18821,1.370988 -0.41273,0.335407 -1.05627,0.260359 -1.57075,0.349728 -7.21377,0.50305 -14.42872,0.995542 -21.63766,1.602925 -0.440544,-0.01323 -1.066178,0.132601 -1.361257,-0.21008 -0.572202,-1.388437 -0.855608,-2.862884 -1.268993,-4.295717 -0.592633,-2.365075 -1.291354,-4.711136 -1.736506,-7.106298 -0.06779,-0.333747 0.461553,-0.256598 0.694602,-0.292049 7.774514,-0.411707 15.549874,-0.794479 23.324984,-1.09594 0.0105,-0.0011 0.0216,-0.0018 0.0316,-0.0024 0.009,-4.44e-4 0.0192,-8.15e-4 0.0285,-6.07e-4 z m -70.644061,3.799661 c 0.0052,-1.62e-4 0.01,-1.49e-4 0.01517,0 0.07187,0.0021 0.13664,0.03588 0.174257,0.08137 0.09514,0.482815 1.980097,9.563129 2.210701,12.287269 0.06233,0.288504 -0.358182,0.371293 -0.634491,0.371585 C 44.315149,81.536 37.632886,82.005499 30.949532,82.516176 23.869173,83.067215 16.793371,83.482241 9.7107808,84.11424 9.354429,84.001241 9.4555635,83.569395 9.3555926,83.314596 8.7019694,79.335404 8.0752939,75.347997 7.6184831,71.331517 c 0.031598,-0.321382 -0.2081144,-0.704118 0.083786,-1.001829 0.7898855,-0.2137 1.6245809,-0.174859 2.4280689,-0.252581 8.575936,-0.379706 17.161389,-0.841601 25.737265,-1.209479 4.52834,-0.213116 8.828322,-0.201147 13.352242,-0.655743 0.0052,-5.27e-4 0.01059,-0.0011 0.01579,-0.0012 z M 124.19968,78.97152 c 0.34991,0 3.58155,10.254438 3.50215,11.113004 -0.0122,0.1298 -1.35884,0.344785 -2.99274,0.477843 -1.63392,0.133029 -6.66555,0.618739 -11.18159,1.079545 -4.51604,0.460792 -8.81707,0.925645 -9.55684,1.032794 -0.90145,0.13058 -1.39611,0.04642 -1.50031,-0.255011 -0.5161,-1.494006 -3.175016,-11.506316 -3.076529,-11.584168 0.108097,-0.08548 23.776789,-1.864007 24.805859,-1.864007 z m -29.265511,2.253202 1.62235,5.854925 c 0.892146,3.220194 1.539853,5.919603 1.439603,5.998826 -0.255695,0.20201 -6.706932,0.934487 -17.522887,1.990302 -5.078453,0.495732 -11.421887,1.132645 -14.096632,1.414701 -7.116485,0.7504 -6.649786,0.84704 -7.152445,-1.480276 -0.236757,-1.096217 -0.924297,-3.993219 -1.527027,-6.437812 -0.602732,-2.444593 -1.022956,-4.501928 -0.935041,-4.571371 0.1228,-0.09704 29.03611,-2.20695 36.758588,-2.682472 z m -42.880671,2.8713 1.712822,6.667317 c 0.942027,3.667157 1.646062,6.720789 1.564674,6.785106 -0.136551,0.107859 -20.19135,2.176731 -33.152007,3.420195 -3.046594,0.29227 -6.223732,0.62235 -7.061369,0.73344 l -1.523386,0.20157 -0.506986,-2.020639 c -1.602244,-6.384919 -2.953304,-12.447618 -2.814833,-12.631534 0.08769,-0.116483 1.958902,-0.31943 4.157891,-0.451127 2.198989,-0.131722 6.855425,-0.460377 10.347364,-0.73103 3.491935,-0.270646 10.030744,-0.732696 14.531364,-1.026722 4.500621,-0.294039 9.20959,-0.627626 10.463941,-0.740746 z m 76.868742,9.986706 c 0.45425,0.468463 3.62114,10.257092 3.38011,10.447552 -0.11456,0.0902 -4.71257,0.76725 -10.21865,1.50456 -13.46632,1.80327 -14.67568,1.91065 -14.88109,1.31756 -0.091,-0.26251 -0.92773,-2.85867 -1.85976,-5.76871 -1.64118,-5.124301 -1.66759,-5.295348 -0.82028,-5.43841 3.30436,-0.557886 24.14998,-2.320055 24.39967,-2.062552 z m -29.652286,2.680043 c 0.233185,0.325518 3.599476,11.260429 3.565906,11.585379 -0.0244,0.23828 -0.26686,0.43353 -0.54037,0.43353 -0.27355,0 -8.282617,1.0127 -17.797335,2.25076 -9.514777,1.23808 -17.802476,2.32507 -18.417243,2.41531 -0.614755,0.0901 -1.190179,0.0504 -1.278089,-0.0887 -0.08791,-0.13897 -1.008969,-3.01899 -2.046765,-6.39955 -1.853243,-6.03679 -1.870174,-6.14902 -0.976934,-6.30971 0.500211,-0.09 5.619377,-0.6375 11.376516,-1.216139 5.757131,-0.578663 13.978129,-1.430151 18.269092,-1.891941 4.290939,-0.461798 7.82147,-0.811943 7.845222,-0.778998 z m -42.846056,4.565899 1.838504,5.88105 c 1.01108,3.23456 1.911814,6.1441 2.001836,6.46573 0.136448,0.4875 -0.301325,0.64712 -2.630861,0.9581 -1.536969,0.20518 -8.074293,1.07028 -14.52772,1.92231 -6.453421,0.852 -14.546406,1.91969 -17.983724,2.37281 l -6.248979,0.82392 -1.416523,-4.5319 c -1.931629,-6.18322 -2.818306,-9.51292 -2.582895,-9.6989 0.108494,-0.0857 3.335516,-0.47114 7.171268,-0.85611 3.83575,-0.385 12.149174,-1.24625 18.473709,-1.9138 6.324538,-0.66763 12.490829,-1.26048 13.702578,-1.31816 z m 77.483212,6.80151 c 0.0575,0.0723 0.6337,1.53497 1.27991,3.25077 0.64615,1.71585 1.51373,3.93539 1.92836,4.93203 0.41463,0.99663 0.61965,1.9182 0.45537,2.04798 -0.16426,0.12977 -5.36374,1.06513 -11.5544,2.07894 -6.19066,1.01385 -11.65815,1.92467 -12.15006,2.02371 -0.78347,0.15782 -1.02707,-0.15261 -1.9642,-2.50458 -2.17668,-5.46292 -3.18087,-8.40802 -2.91016,-8.53374 0.15296,-0.0711 1.2029,-0.23597 2.33335,-0.36675 1.13045,-0.13071 6.64997,-0.87295 12.26603,-1.64907 5.61603,-0.77611 10.25822,-1.35161 10.3158,-1.27929 z m -30.30866,3.9472 c 0.39493,-0.0105 0.70956,0.21187 0.88041,0.63084 0.1688,0.41398 1.1753,2.96616 2.23621,5.67096 l 1.92836,4.91746 -1.90166,0.357 c -1.63653,0.30758 -29.788807,4.91198 -33.278296,5.44268 -0.680579,0.10351 -1.566374,0.2652 -1.967834,0.35943 -0.55203,0.12967 -0.888966,-0.21672 -1.38313,-1.42076 -0.90403,-2.2026 -3.475714,-9.20987 -3.72012,-10.13608 -0.230701,-0.87424 -0.953026,-0.71197 8.899875,-1.99273 8.862632,-1.15204 27.227045,-3.63878 28.131945,-3.80936 0.0594,-0.0105 0.11786,-0.0178 0.17424,-0.0195 z m -42.018478,5.68917 2.332134,6.14334 c 1.282259,3.37898 2.248418,6.20882 2.147555,6.28844 -0.100868,0.0796 -6.18827,1.13404 -13.527715,2.34246 -7.339443,1.20836 -16.234562,2.67429 -19.766369,3.25744 -3.531805,0.58316 -6.634258,1.06013 -6.895004,1.06013 -0.260749,0 -0.649105,-0.32649 -0.862787,-0.72557 -0.79644,-1.48751 -4.886865,-12.58652 -4.694628,-12.73839 0.109929,-0.0869 3.491994,-0.60087 7.51614,-1.14209 4.02415,-0.54125 12.412892,-1.67404 18.641894,-2.51794 6.229003,-0.84388 12.177046,-1.63256 13.217451,-1.75165 z m 77.933108,4.21375 c 0.72145,0.94614 4.5667,9.56436 4.34307,9.73412 -0.16577,0.1259 -5.61246,1.25708 -12.10328,2.51368 -6.49084,1.25659 -11.90144,2.28446 -12.02377,2.28417 -0.37032,-9.5e-4 -5.15055,-10.11174 -4.91624,-10.39837 0.24455,-0.29912 24.52565,-4.36256 24.70022,-4.1336 z m -29.76583,4.82577 c 0.4448,0 5.47133,10.53288 5.08322,10.65156 -0.14318,0.0439 -8.3346,1.64285 -18.202913,3.55315 -9.868306,1.91034 -18.213179,3.47361 -18.544139,3.47361 -0.376103,0 -1.549308,-2.02701 -3.128131,-5.40501 -1.389322,-2.97258 -2.513317,-5.53561 -2.498499,-5.69585 0.01478,-0.16023 0.354982,-0.3761 0.755925,-0.47905 0.938968,-0.24125 36.028177,-6.09841 36.534537,-6.09841 z m -42.019698,6.99641 c 0.438848,0.48913 5.224025,11.5152 5.055286,11.64853 -0.120269,0.095 -7.259032,1.55427 -15.864097,3.24349 -8.60507,1.68923 -17.473072,3.44455 -19.706262,3.90044 l -4.060135,0.8288 -0.506381,-0.74863 c -0.712089,-1.05303 -5.636755,-11.5809 -5.60052,-11.97277 0.01637,-0.17754 0.541182,-0.40625 1.165764,-0.50881 0.624577,-0.10258 9.749228,-1.60726 20.276998,-3.34368 10.527768,-1.73643 19.185211,-3.10776 19.239347,-3.04737 z m 78.327778,1.36187 c 0.0655,0.074 1.31911,2.20776 2.78689,4.7426 1.69501,2.92728 2.48462,4.66013 2.16335,4.74927 -0.27816,0.0771 -3.02692,0.68628 -6.10812,1.35277 -3.08121,0.66653 -7.93842,1.74171 -10.79425,2.38981 -2.85582,0.64808 -5.60368,1.28766 -6.10567,1.42139 -0.8088,0.21554 -1.12942,-0.12391 -2.81727,-2.97998 -2.58733,-4.3782 -3.88508,-6.84394 -3.67216,-6.97576 0.0976,-0.0607 2.03833,-0.44848 4.31334,-0.86279 2.27504,-0.41434 7.73188,-1.47792 12.12576,-2.36309 4.39385,-0.88517 8.0426,-1.54824 8.10813,-1.47422 z m -29.75976,5.70679 c 0.52115,-0.008 1.08798,0.72334 2.2538,2.86583 0.89797,1.65024 2.16201,3.81155 2.80938,4.80331 0.64738,0.99171 1.16348,1.94983 1.14694,2.12874 -0.0164,0.17892 -1.47726,0.64221 -3.24653,1.02974 -1.7693,0.38757 -8.35345,1.82405 -14.63094,3.19249 -6.277521,1.36847 -12.995217,2.86268 -14.92906,3.32001 -1.933804,0.45734 -3.653365,0.83121 -3.820912,0.83121 -0.314249,0 -1.779525,-2.37874 -4.804523,-7.79908 -1.570024,-2.81322 -1.66618,-3.14326 -0.97815,-3.36188 0.419639,-0.13337 3.705114,-0.79265 7.301202,-1.4651 5.306634,-0.99233 25.930373,-4.95568 28.795583,-5.53374 0.0344,-0.006 0.0686,-0.0102 0.10321,-0.0102 z m -42.240714,8.21134 c 0.87129,-0.0205 1.273943,0.64862 4.02492,5.42505 2.601001,4.51595 3.072623,5.58751 2.520357,5.73168 -0.37362,0.0975 -4.601837,1.03053 -9.395328,2.07288 -4.793485,1.0423 -13.011942,2.83837 -18.26302,3.9915 -5.251074,1.15314 -9.860416,2.09743 -10.243539,2.09778 -0.393541,3.8e-4 -1.306277,-0.86733 -2.097765,-1.99334 -1.839119,-2.61645 -5.821741,-9.4607 -5.604774,-9.63212 0.09333,-0.0737 4.541432,-0.98802 9.884096,-2.0328 5.342664,-1.04477 13.72209,-2.69829 18.621251,-3.67398 4.899153,-0.97569 9.46421,-1.85091 10.143963,-1.94536 0.151808,-0.0211 0.285365,-0.0382 0.409839,-0.0414 z" /><path
       style="fill:#000000;stroke-width:1.13488"
       d="m 52.804965,230.63484 c 0,0.21298 0,-0.12855 0,0 z"
       id="path1" /><path
       style="fill:#000000;stroke:#ffffff;stroke-width:0.843;stroke-dasharray:none;stroke-opacity:1;paint-order:stroke fill markers"
       d="m 236.88997,175.79239 c -11.45553,-1.86522 -26.58481,-7.28755 -26.58481,-9.52795 0,-0.52625 0.46014,-0.75854 1.02252,-0.51626 10.25383,4.41819 13.61426,5.54063 19.83637,6.62553 4.2018,0.73265 11.92651,1.27641 17.99584,1.26677 9.75453,-0.016 12.54858,-0.30791 18.40486,-1.92644 2.01472,-0.55682 2.01246,-0.54659 -0.15556,0.69207 -5.83869,3.33616 -20.70012,4.9851 -30.51941,3.38628 z"
       id="path5" /><path
       style="fill:#000000;stroke:#ffffff;stroke-width:0.717482;stroke-dasharray:none;stroke-opacity:1;paint-order:stroke fill markers"
       d="m 190.63412,94.438738 c -1.70865,-0.165927 -3.41582,-0.267414 -5.1322,-0.309581 0,0 0,0 0,0 -7.62342,-0.187299 -14.5884,0.692821 -15.02982,0.435829 -0.24446,-0.142375 3.14054,-0.65022 8.01661,-1.293029 1.77347,-0.23381 4.13208,-0.513169 6.75741,-0.623984 3.31196,-0.140247 7.12466,0.01362 11.0096,0.875766 0,0 1e-5,10e-7 1e-5,10e-7 2.97793,0.661434 5.86207,1.716093 8.64788,3.077238 0,0 0,10e-7 0,10e-7 2.66649,1.301946 5.1992,2.853446 7.63503,4.378901 5.55533,3.49159 9.45794,5.85745 13.75715,7.62672 1.04755,0.4311 2.32797,0.86838 3.7632,1.25662 5.43866,1.4349 10.7558,1.62162 15.6962,1.59958 5.69972,-0.0254 10.5368,-1.02472 10.78664,-0.9624 0.35607,0.0888 -3.18383,1.18865 -8.17361,1.79549 -5.35474,0.65122 -11.0599,0.53465 -16.21741,-0.64361 -0.75269,-0.17195 -1.56746,-0.3839 -2.43164,-0.64151 -5.93266,-1.82452 -11.1269,-4.74728 -17.83104,-8.74786 0,0 0,0 0,0 -2.57482,-1.5253 -5.0131,-2.939535 -7.54586,-4.121206 -2.8603,-1.33723 -5.60479,-2.268802 -8.26962,-2.861921 -1.96877,-0.441791 -3.82958,-0.684796 -5.43853,-0.841045 z"
       id="path4"
       transform="matrix(1.1749427,0,0,1.1749427,-30.517599,-0.27739087)" /><path
       style="fill:#000000;stroke:#ffffff;stroke-width:0.843;stroke-dasharray:none;stroke-opacity:1;paint-order:stroke fill markers"
       d="m 145.65776,225.40037 c -2.36971,-1.25511 -5.14491,-3.07762 -6.16701,-4.05 l -1.85833,-1.76797 2.67555,1.11115 c 7.08871,2.94391 19.77063,6.29447 26.10468,6.89688 8.58049,0.816 19.7389,-0.0116 29.0703,-2.15569 10.95778,-2.51804 8.32398,-0.65812 -3.45902,2.44261 -15.59645,4.10426 -20.91186,4.4148 -32.46377,1.89646 -6.50197,-1.41753 -10.98231,-2.82669 -13.9024,-4.37344 z"
       id="path3" /></g></svg>
