<svg xmlns="http://www.w3.org/2000/svg" width="512" height="512"><path d="M277.028 109.107c-3.039 1.945-5.335 2.913-8.976 5.704l-16.682 12.785-10.66-8.823-10.294-1.124-44.726-3.972c-23.397.1-32.72-.254-43.451-.61-60.595-2.008-94.869 13.964-129.228 21.107l-8.59 1.785v3.797c0 2.088.984 12.352 2.187 22.808 2.37 20.6 8.218 74.092 12.738 116.535 2.991 28.08 4.801 43.43 8.43 71.482 1.221 9.448 3.588 28.15 5.26 41.559l3.038 24.381 2.182-.227c1.2-.125 13.654-1.008 27.674-1.963 26.184-1.784 54.86-.092 86.997-3.885 3.393-.4 4.706-.616 4.877-.719 2.715-.135 4.326-.196 10.764-.58l21.737-1.297 31.719-3.184 30.357-9.475 3.619 1.848c1.784.911 9.464 5.911 17.583 11.384zm-61.485 44.76.292 6.095c1.4 29.31 9.128 182.923 9.128 190.614v9.724l-6.372.731c-9.16 1.052-62.196 4.763-82.842 7.295-9.752 1.195 23.3-.259 3.013 2.188s-57.081 4.448-57.386 4.448c-.917 0-1.39-2.146-3.786-17.178-1.263-7.924-3.019-18.895-3.903-24.381s-4.878-47.738-6.169-55.967a5072 5072 0 0 0-4.342-27.152c-1.097-6.705-5.607-56.759-7.316-67.886l-3.106-20.23 1.046-.996 1.047-.993 26.044-.721c46.02-2.834 127.781-5.252 130.22-5.373zM138.2 377.198c5.575 0 15.181 8.9 15.181 14.597 0 5.698-7.405 14.256-12.98 14.256s-15.748-7.84-15.748-13.538c0-5.697 7.971-15.315 13.547-15.315" style="fill:#cea55e;stroke-width:1"/><path d="m421.726 33.931-10.404 7.045-10.605 1.657-11.856.193c-22.286 11.86-35.328 19.14-48.64 27.15-7.62 4.586-21.084 12.489-29.922 17.563-19.121 10.978-29.348 18.632-42.247 27.272l-16.682 12.785 2.755 11.479-1.17 33.197 1.35 36.618-1.99 55.238c3.486 56.133-3.938 111.573-5.302 119.286l1.908 9.949-3.986.634 29.965 20.728c10.094 6.801 26.302 17.02 36.018 22.709 45.282 26.51 44.945 26.33 74.742 40.193 2.134.993 4.627 1.545 5.541 1.228 3.713-1.285 21.53-5.238 39.99-9.085l-10.087-112.374-.79-30.97.788-12.432.785-12.432 9.304-161.976a35 35 0 0 1 0-1.941l-1.347-105.32Zm-45.15 109.69v2.152c0 2.76-6.346 40.51-7.092 41.717-.31.501-1.583 5.584-2.83 11.295l-.265 12.383-5.153 6.705c-7.504 15.964-21.78 33.338-30.216 37.342l-3.88 1.84-5.925-.069c-15.362-.182-27.874-19.301-33.297-56.04l-1.967-17.323 5.031-.908c1.117-.982 13.8-6.026 27.075-10.768 9.698-3.464 30.004-13.647 42.668-21.398 4.876-2.985 11.988-5.766 13.359-6.178zm-52.672 148.777 5.254 21.057c5.08 20.356 15.793 58.076 19.319 68.02.945 2.667 1.718 5.037 1.718 5.265 0 .99-2.08.101-8.312-3.545-9.846-5.76-30.664-15.587-37.748-17.82l-6.198-1.955.534-2.264c.294-1.245 3.623-10.243 7.398-19.996 5.599-14.464 14.785-39.23 17.469-47.1z" style="fill:#636479;stroke-width:1"/><path d="m428.979 32.203 2.212 10.543c-1.298 22.188-5.625 42.11-8.191 68.96h74.412c1.792-24.775 4.658-28.376 8.95-60.212.82-6.085 1.398-11.151 1.286-11.258s-6.187-.754-13.502-1.441c-45.79-4.298-57.884-5.832-65.167-6.592m-9.334 184.877c-.033 1.92-.056 2.472-.088 4.39-.325 19.515-.736 39.038-1.153 60.907h53.535c.926-19.21 3.354-53.193 4.682-65.297zm-3.499 176.922c-.174 8.208-.411 18.932-.53 24.736-.402 19.505 3.81 51.557 3.81 51.557 22.436-5.29 51.373-8.637 56.867-8.666.305-.001.23-6.362-.166-14.135s-.771-27.038-.832-42.812l-.05-10.68z" style="fill:#9a4940;stroke-width:1"/><path d="M379.535 478.45c-16.262-7.133-48.94-24.742-60.37-32.532-1.524-1.039-7.393-4.472-13.041-7.629s-19.457-11.907-30.685-19.443l-20.415-13.703-11.323 4.695c-11.09 4.6-13.345 8.57-17.933 9.311-13.98 2.257-64.995 7.005-111.635 9.375-10.117.514-45.085 1.289-57.797.303-14.14-7.198-8.059-5.666-23.811-13.202-.927-.443-12.501-95.093-16.482-132.093-1.574-14.629-4.31-39.814-6.08-55.966s-4.487-41.338-6.037-55.967C2.375 156.97.857 143.183.553 140.962L0 136.922l1.647-.632c2.617-1.004 37.004-24.857 44.334-25.624 3.657-.382 12.884-1.405 20.503-2.273 16.682-1.9 2.973-.193 26.598-1.076 9.448-.353 27.9-1.347 41.005-2.21 13.105-.862 38.595-2.167 56.643-2.9l32.816-1.333 22.45 11.697 6.12 7.413 8.865-5.922c14.022-9.365 34.579-22.07 45.439-28.083 5.485-3.037 18.701-10.74 29.368-17.117 10.667-6.376 24.362-14.246 30.433-17.488s13.486-7.337 16.477-9.1c8.584-5.061 19.38-9.662 29.101-12.402l8.963-2.526 8.215.858c7.284.76 23.38 2.293 69.17 6.592 7.314.686 13.39 1.335 13.502 1.441s-.467 5.172-1.287 11.257c-4.992 37.025-5.263 39.675-7.86 76.8l-.723 10.323-33.58-.35-33.578-.348-.641 3.878c-.353 2.134-.643 7.62-.644 12.191s-.587 19.41-1.3 32.976-1.047 24.914-.742 25.22c.306.305 12.197.06 26.424-.544s25.986-.982 26.13-.838-.168 2.565-.693 5.379c-1.27 6.797-5.38 64.823-5.674 80.095l-.232 12.068-17.812-.735c-9.796-.405-21.377-1.037-25.735-1.406l-7.923-.67-.81 9.723-.81 9.722.808 33.365c.445 18.35.884 33.423.976 33.495s9.643-1.776 21.224-4.107c11.581-2.33 24.423-4.573 28.537-4.984l7.481-.746.11 28.68c.061 15.775.435 35.04.832 42.813.396 7.772.471 14.133.166 14.134-6.688.036-85.622 16.173-91.46 18.698l-2.245.971zm30.635-19.902c.394-2.39 1.043-20.305 1.444-39.81s1.203-56.908 1.783-83.118 1.551-77.578 2.159-114.15 1.368-74.225 1.691-83.673c1.251-36.596 2.754-74.213 3.421-85.612l.698-11.913h-1.029c-.565 0-3.737.797-7.047 1.772l-6.02 1.773-72.62 41.365c-39.94 22.75-73.557 42.402-74.705 43.67l-2.086 2.305 1.402 5.842 1.401 5.843-1.198 31.556c-1.678 44.182-2.273 66.45-3.538 132.404l-1.105 57.625-1.099 7.761c-.605 4.27-1.327 9.141-1.606 10.828l-.507 3.066 4.202 1.681c2.312.925 37.335 18.348 77.83 38.719 79.815 40.148 75.497 38.339 76.53 32.066m-52.231-52.137-19.293-12.858-19.992-9.156c-31.582-14.464-36.71-16.966-38.02-18.543l-1.228-1.48 2.734-6.62c1.503-3.64 4.774-11.855 7.268-18.255s6.773-17.372 9.51-24.382c5.607-14.362 14.582-39.233 15.45-42.813l.572-2.362-5.052-1.93-5.052-1.929-6.013-6.304-6.012-6.303-3.284-6.583c-9.36-18.763-14.974-65.874-7.85-65.874 1.778 0 42.597-19.253 56.882-26.83 6.705-3.555 19.422-9.954 28.26-14.218s17.553-8.533 19.366-9.487l3.296-1.735 1.907 2.356 1.908 2.355.761 5.08c1.411 9.41-.826 24.464-8.62 57.995l-4.508 19.394-3.592 7.893c-4.816 10.58-11.618 20.448-20.384 29.576l-7.248 7.546-6.482 3.455-6.483 3.455.576 1.744c2.757 8.355 10.207 34.218 12.946 44.944 1.866 7.303 6.167 22.763 9.558 34.356s7.33 25.316 8.754 30.497 4.353 14.63 6.511 20.998c4.002 11.805 4.565 15.068 3.019 17.502l-.873 1.373zm-13.164-37.705c-6.499-21.104-11.905-40.82-16.886-61.577-2.006-8.356-3.815-15.023-4.02-14.817-.207.206-2.548 6.543-5.204 14.083s-8.381 22.935-12.723 34.212c-4.342 11.276-8.006 20.99-8.142 21.586l-.246 1.083 6.095 2.01c7.515 2.478 35.956 16.182 41.74 20.112 5.672 3.855 5.667 3.704-.614-16.692M333.11 250.172c6.716-3.936 13.377-11.853 21.217-25.217l6.596-11.243 1.818-6.65c4.911-17.955 10.157-42.412 11.44-53.333l.701-5.957h-1.571c-.865 0-8.04 3.808-15.946 8.463-19.152 11.277-27.613 15.274-48.999 23.145l-18.002 6.626v3.88c.001 20.174 9.927 51.119 19.038 59.35l4.228 3.82h14.56zM446.668 451.87l18.461-6.21.86-17.895c.474-9.841.921-19.64.994-21.773l.133-3.878-9.42.304c-5.182.168-14.38 1.042-20.44 1.942L426.239 406l-.971 1.382-.971 1.383.678 21.436c.661 20.9 1.312 27.881 2.6 27.881.348 0 8.94-2.795 19.094-6.21M61.612 410.25c52.313 1.107 105.239-3.811 156.563-8.036 4.395-.362 22.145-14.533 22.921-15.309 1.962-1.962 5.247-67.639 6.89-137.729l.805-34.355-1.109-40.122-1.108-40.122-1.349-1.346-1.349-1.345c-25.517-15.66-15.578-15.241-59.364-14.042-46.774 1.282-90.14 4.063-134.903 7.362-10.62 3.808-19.937 15.464-32.83 19.426l-.592 1.543c-.326.849 1.614 19.634 4.31 41.744 8.206 67.291 11.056 90.928 17.14 142.16 5.065 42.658 7.496 62.918 8.502 63.98 4.84 5.102 12.984 16.138 15.473 16.19m8.856-33.348c-.403-3.2-1.462-9.808-2.353-14.684-4.438-24.292-14.03-115.86-17.153-141.302a14380 14380 0 0 0-4.472-36.018c-1.15-9.143-2.234-19.584-2.408-23.201l-.317-6.578 3.879-.82c15.786-3.336 18.47-2.395 83.118-6.016 6.4-.359 36.378-1.35 47.655-2.202 11.276-.852 25.988-1.694 32.693-1.87l12.191-.318.696 8.312c.383 4.571 1.26 26.764 1.948 49.317l5.684 98.634-.84 35.464-.839 35.464-8.866.75c-4.876.414-22.33 1.281-38.788 1.928l-45.438 1.177s-36.788 3.248-53.326 6.11c-4.805.919-9.545 1.671-10.533 1.671h-1.797zm130.114-18.028c7.62-.877 15.518-1.886 17.553-2.242l3.7-.647-.66-10.183c-.864-13.308-7.047-120.414-7.89-155.363-.368-15.238-.948-28.872-1.29-30.296l-.62-2.59-11.769.692c-6.473.38-42.745 1.662-61.64 2.848-18.014 1.278-67.547-2.321-83.28 3.648-.297.297 1.289 12.185 3.524 26.418s5.003 31.863 6.15 39.177c1.148 7.315 7.475 76.913 8.643 84.227s3.489 22.026 5.155 32.693 3.418 20.43 3.89 21.697l.859 2.302 7.027-.865c18.212-2.24 92.444-9.42 110.648-11.516m245.295-84.291 13.116-.784.456-1.229c.54-1.456 2.392-38.718 1.954-39.33-.165-.231-7.14-.865-15.5-1.41l-15.2-.988-.98.98-.979.978-1.028 20.78c-.566 11.43-.73 21.264-.365 21.855l.664 1.073 2.372-.57c1.305-.314 8.275-.924 15.49-1.355m7.857-165.652c7.97-.594 18.71-1.2 23.867-1.345l9.378-.265.81-3.88c.444-2.133 1.379-9.586 2.076-16.563s1.896-16.296 2.663-20.71l1.396-8.025-6.755-.614c-18.314-1.665-32.076-2.79-41.258-3.374l-10.123-.645-.733 3.907c-.992 5.292-1.023 39.746-.042 47.598l.79 6.317 1.72-.66c.946-.363 8.241-1.146 16.21-1.74" style="fill:#010101;fill-opacity:1;stroke-width:1"/><path d="M173.492 364.039c-1.369 0-2.812.144-4.071.498-1.362.287-2.023.882-3.101 1.529-.785.726-2.348 1.513-3.319 2.504-.979.86-1.748 1.895-2.392 3.004-.736 1.091-1.155 2.345-1.488 3.633-.335 1.296-.395 2.68-.395 4.07 0 1.4.06 2.688.402 3.974.23 1.255 1.07 2.598 1.741 3.752.823 1.107 1.375 2.075 2.22 2.96.882.924 1.974 1.748 3.053 2.413 1.176.68 2.222 1.178 3.429 1.531 1.237.362 2.553.553 3.947.553 1.37 0 2.556-.32 3.814-.674 1.135-.49 2.37-.958 3.49-1.621.988-.73 2.302-1.431 3.216-2.325 1.068-.87 1.672-1.849 2.305-2.917a13.9 13.9 0 0 0 1.53-3.617c.342-1.28.536-2.632.537-4.04 0-1.4.377-2.746.029-4.033.19-1.367-1.024-2.829-1.779-4.021a13 13 0 0 0-2.374-2.912c-.91-.888-2.013-1.665-3.176-2.298-1.12-.614-2.032-1.06-3.31-1.392-1.283-.332-2.96-.571-4.308-.571m.26 5.913c1.259 0 2.203.248 3.293.72a8.7 8.7 0 0 1 2.858 1.969c.787.817 1.439 1.835 1.91 2.966.466 1.116.768 2.296.768 3.573 0 1.285-.291 2.5-.75 3.62-.494 1.103-1.124 2.125-1.936 2.977-.826.85-1.848 1.442-2.926 1.925-1.082.485-1.845.903-3.107.903a8.8 8.8 0 0 1-3.518-.713c-1.057-.458-2.034-1.147-2.925-2.016-.721-.818-1.297-1.874-1.838-3.01-.53-1.115-1.317-2.417-1.317-3.68 0-1.284.385-2.484.858-3.591.587-1.07 1.013-2.232 1.819-3.06.72-1.011 1.879-1.49 3.003-1.924 1.112-.43 2.55-.66 3.809-.66" style="fill:#010101;fill-opacity:1;stroke-width:3.41037;stroke-linejoin:bevel;stroke-miterlimit:4.2" transform="matrix(1.10825 0 0 1.10825 -53.207 -28.525)"/></svg>