<?xml version="1.0" standalone="no"?>
<!DOCTYPE svg PUBLIC "-//W3C//DTD SVG 20010904//EN"
 "http://www.w3.org/TR/2001/REC-SVG-20010904/DTD/svg10.dtd">
<svg version="1.0" xmlns="http://www.w3.org/2000/svg"
 width="1024.000000pt" height="1024.000000pt" viewBox="0 0 1024.000000 1024.000000"
 preserveAspectRatio="xMidYMid meet">
<metadata>
Created by potrace 1.14, written by Peter Selinger 2001-2017
</metadata>
<g transform="translate(0.000000,1024.000000) scale(0.100000,-0.100000)"
fill="#000000" stroke="none">
<path d="M3467 8255 l-78 -96 30 -37 c41 -52 269 -274 439 -426 78 -71 142
-133 142 -138 0 -5 4 -7 9 -4 11 7 33 -19 23 -28 -4 -4 -2 -6 4 -4 11 3 86
-54 136 -104 15 -16 30 -28 34 -28 4 0 16 -10 28 -22 12 -13 46 -43 76 -68 66
-54 104 -87 132 -117 12 -13 25 -23 29 -23 5 0 24 -16 43 -35 20 -19 40 -35
45 -35 5 0 16 -9 24 -20 8 -11 17 -17 20 -13 4 3 7 -1 7 -10 0 -9 5 -17 11
-17 7 0 22 -10 34 -22 36 -36 59 -53 70 -53 5 0 10 -5 10 -12 0 -7 6 -18 13
-24 6 -7 12 -9 12 -4 0 4 9 0 20 -10 11 -10 17 -22 14 -26 -3 -5 3 -6 12 -2
12 4 15 3 10 -5 -4 -7 -2 -12 3 -12 6 0 19 -7 29 -16 50 -45 89 -74 105 -80 9
-3 17 -9 17 -13 0 -4 30 -32 68 -62 37 -30 72 -61 79 -69 7 -8 13 -11 13 -7 0
4 24 -15 53 -43 28 -27 56 -50 60 -50 4 0 18 -10 31 -22 13 -13 41 -36 62 -53
20 -16 44 -38 53 -47 8 -10 19 -18 22 -18 4 0 21 -12 37 -27 16 -16 45 -39 63
-53 18 -14 44 -36 57 -50 13 -14 28 -24 33 -22 5 1 9 -5 9 -13 0 -8 7 -15 15
-15 8 0 15 -6 15 -14 0 -8 6 -16 13 -20 52 -24 106 -67 577 -456 37 -30 86
-71 110 -90 24 -19 48 -40 54 -45 10 -9 101 -83 376 -304 63 -51 134 -110 157
-132 23 -21 47 -39 52 -39 6 0 11 -6 12 -12 0 -7 26 -30 57 -50 31 -20 70 -47
86 -60 16 -13 58 -47 95 -76 36 -29 73 -59 81 -65 8 -7 37 -30 65 -52 27 -22
54 -43 60 -47 5 -4 31 -25 56 -45 26 -21 59 -48 75 -60 16 -12 55 -42 86 -68
31 -25 60 -45 65 -45 5 0 15 -9 23 -20 8 -11 20 -20 26 -20 7 0 14 -4 16 -8 2
-4 26 -23 53 -42 28 -19 54 -41 58 -47 4 -7 12 -13 18 -13 5 0 22 -11 36 -24
15 -14 30 -23 34 -21 4 3 9 -2 12 -10 6 -14 84 -69 100 -70 4 0 11 -5 15 -10
4 -6 23 -22 42 -35 19 -13 38 -29 42 -35 4 -5 8 -7 8 -3 0 4 12 -4 26 -17 15
-14 33 -25 40 -25 8 0 14 -5 14 -12 0 -6 3 -8 7 -5 3 4 11 0 17 -7 19 -25 658
-446 675 -445 10 0 12 2 4 6 -7 2 -13 20 -13 39 0 21 -6 37 -14 40 -9 4 -13
16 -11 35 3 19 0 27 -6 23 -7 -4 -9 10 -7 42 3 31 9 48 16 46 7 -1 12 4 12 12
0 7 9 16 21 19 29 8 21 17 -68 77 -78 53 -749 555 -983 736 -69 53 -141 108
-160 123 -20 14 -137 106 -261 204 l-226 178 -6 47 c-3 26 -69 236 -146 467
-78 231 -159 485 -182 565 -22 80 -45 156 -49 170 -21 57 -83 333 -134 590
-73 366 -100 450 -146 450 -10 0 -126 53 -257 118 -237 117 -416 199 -673 307
-189 80 -326 143 -390 180 -14 8 -33 15 -43 15 -9 0 -35 11 -57 25 -42 27 -65
31 -75 15 -10 -17 -32 -12 -111 25 -41 19 -79 35 -84 35 -5 0 -25 14 -45 31
-41 37 -103 48 -159 29 -62 -20 -186 -121 -291 -236 -127 -139 -157 -170 -227
-228 l-57 -48 -40 33 c-22 17 -38 36 -35 41 3 5 2 7 -3 6 -5 -2 -21 7 -37 20
-27 21 -27 22 -7 22 12 0 20 4 17 9 -3 4 -16 6 -29 4 -18 -4 -30 3 -46 22 -11
15 -21 24 -21 20 0 -5 -9 0 -20 10 -12 10 -18 25 -15 32 2 8 0 11 -5 8 -6 -4
-17 1 -26 9 -8 9 -11 16 -5 16 6 0 11 4 11 8 0 4 -9 8 -19 8 -11 0 -17 -5 -13
-10 3 -6 -11 5 -30 24 -37 35 -44 55 -11 29 16 -13 17 -12 4 4 -7 9 -20 17
-28 17 -8 0 -11 4 -8 10 3 5 0 7 -7 5 -18 -7 -61 33 -52 47 4 6 3 8 -4 4 -14
-8 -74 43 -65 56 3 6 2 8 -4 5 -13 -8 -56 37 -46 47 5 4 3 6 -3 4 -6 -1 -21 9
-35 25 l-24 27 -78 -95z m1865 -447 c10 -10 29 -20 42 -24 17 -4 27 -15 31
-35 4 -16 10 -27 15 -24 4 3 10 -7 13 -21 6 -36 -3 -105 -14 -98 -5 3 -9 -10
-8 -28 l0 -33 18 45 c15 36 19 41 24 25 4 -11 54 -209 112 -440 120 -476 172
-664 187 -682 6 -7 8 -13 4 -13 -6 0 -509 412 -548 449 -16 15 -14 24 32 151
27 74 67 182 89 239 22 58 38 107 36 110 -2 3 -21 15 -42 26 -21 11 -41 24
-44 28 -3 5 -9 8 -13 7 -11 -2 -66 24 -66 32 0 5 -9 8 -20 8 -11 0 -20 5 -20
10 0 6 -10 10 -21 10 -18 0 -19 2 -9 15 7 8 17 12 24 8 6 -4 5 1 -3 10 -9 12
-10 17 -2 17 7 0 9 4 6 10 -4 6 1 7 12 3 16 -6 17 -5 3 12 -9 11 -10 16 -2 11
7 -4 12 -1 12 8 0 9 5 16 10 16 6 0 10 9 10 19 0 11 5 23 10 26 6 3 10 16 10
27 0 12 3 19 6 15 9 -9 28 13 45 50 15 35 33 38 61 11z m-322 -557 c0 -5 -7
-14 -15 -21 -16 -14 -18 -10 -9 14 6 17 24 22 24 7z m-20 -83 c0 -10 -6 -18
-14 -18 -8 0 -13 8 -11 18 2 9 4 24 4 32 1 13 2 13 11 0 5 -8 10 -23 10 -32z
m1754 -163 c12 -9 19 -26 18 -47 0 -18 3 -35 8 -38 5 -3 12 -26 15 -50 11 -93
17 -120 26 -120 5 0 9 -27 9 -59 0 -33 5 -63 10 -66 6 -3 10 -22 10 -42 0 -34
-1 -35 -18 -20 -10 10 -21 15 -23 13 -2 -3 -4 11 -3 30 1 19 -2 34 -8 34 -5 0
-7 4 -3 9 3 5 1 12 -3 15 -5 3 -7 18 -4 32 3 19 1 25 -7 20 -8 -5 -8 0 -1 20
8 20 8 25 -3 21 -10 -4 -12 9 -11 52 1 56 -15 98 -32 83 -4 -4 -2 2 6 12 12
15 12 20 2 23 -6 3 -9 10 -5 16 11 17 13 38 3 32 -4 -3 -10 6 -12 20 -6 28 -1
30 26 10z m-894 -476 c0 -5 9 -9 20 -9 11 0 20 -4 20 -9 0 -5 16 -15 35 -22
19 -7 35 -16 35 -20 0 -4 10 -9 23 -11 12 -2 21 -9 19 -17 -2 -8 3 -11 11 -8
8 3 24 -1 35 -8 10 -8 22 -11 26 -8 3 3 6 0 6 -8 0 -16 37 -42 49 -35 4 3 18
-6 31 -19 13 -13 27 -22 32 -19 4 3 11 -2 14 -11 4 -9 13 -14 20 -11 7 3 22
-6 33 -20 11 -14 25 -23 31 -19 7 4 14 -2 17 -14 3 -12 12 -21 19 -21 8 0 14
-4 14 -10 0 -5 8 -10 18 -10 11 0 27 -9 37 -20 10 -11 24 -20 32 -20 7 0 13
-4 13 -10 0 -5 7 -7 15 -4 11 5 13 2 9 -10 -4 -12 0 -16 15 -16 12 0 21 -4 21
-8 0 -4 14 -13 31 -19 18 -7 28 -17 24 -23 -3 -6 -3 -10 2 -9 21 4 33 -2 33
-15 0 -13 35 -32 51 -28 3 0 12 -10 19 -23 7 -14 20 -25 28 -25 20 0 92 -53
92 -67 0 -7 7 -13 15 -13 9 0 27 -11 41 -25 14 -14 30 -23 35 -20 5 4 9 0 9
-7 0 -16 58 -43 84 -39 14 2 17 -2 13 -13 -4 -9 -2 -16 3 -16 6 0 10 -9 10
-20 0 -11 6 -20 13 -20 8 0 7 -4 -3 -10 -10 -7 -11 -13 -5 -17 18 -13 43 -75
39 -96 -2 -14 1 -17 14 -12 9 3 13 3 9 -1 -4 -4 -1 -14 6 -22 9 -13 9 -14 0
-8 -7 4 -13 3 -13 -2 0 -6 7 -13 16 -16 9 -4 14 -13 10 -22 -3 -8 -2 -12 4 -9
11 7 14 -5 11 -47 -1 -28 13 -38 22 -15 3 6 6 1 6 -12 1 -26 18 -84 32 -113
13 -26 11 -38 -6 -31 -9 3 -14 8 -11 10 8 8 -23 35 -33 29 -5 -4 -16 1 -24 9
-9 8 -20 15 -26 15 -6 0 -11 4 -11 8 0 16 -37 52 -54 52 -9 0 -16 5 -16 10 0
6 -7 10 -15 10 -9 0 -12 6 -8 17 5 13 2 15 -11 10 -11 -4 -15 -3 -11 4 4 6 -3
13 -15 16 -16 4 -18 8 -8 14 9 6 6 9 -10 9 -14 0 -37 14 -53 31 -16 17 -29 28
-29 25 0 -4 -11 4 -24 18 -13 15 -26 26 -30 26 -12 0 -36 28 -36 40 0 7 -7 10
-15 6 -9 -3 -15 0 -15 10 0 10 -6 14 -14 11 -11 -4 -13 -1 -9 10 4 10 2 14 -4
10 -6 -4 -32 13 -59 38 -26 25 -53 45 -61 45 -7 0 -13 5 -13 10 0 6 -6 10 -13
10 -15 0 -57 45 -57 61 0 6 -7 9 -14 6 -10 -4 -13 -1 -9 9 4 10 0 15 -8 14
-27 -4 -40 0 -34 10 3 6 -1 10 -10 10 -9 0 -14 3 -12 8 6 10 -35 47 -53 47 -8
0 -14 6 -12 13 1 6 -5 12 -13 12 -18 0 -65 44 -65 60 0 6 -4 8 -10 5 -5 -3
-10 1 -10 9 0 9 -7 13 -20 11 -13 -2 -20 2 -20 11 0 8 -4 12 -10 9 -5 -3 -10
-1 -10 5 0 17 -28 42 -40 35 -5 -3 -10 -1 -10 5 0 12 -29 45 -39 45 -3 0 -5 4
-3 8 1 5 -1 6 -6 3 -11 -6 -52 21 -52 35 0 14 -26 39 -40 39 -6 0 -8 5 -4 13
5 7 0 6 -11 -3 -11 -9 -16 -10 -11 -2 4 7 2 12 -7 12 -8 0 -30 17 -48 38 -19
21 -40 37 -47 35 -7 -3 -10 1 -6 10 3 10 -2 18 -15 22 -17 5 -21 15 -21 51 0
25 -4 43 -9 40 -5 -3 -11 4 -15 17 -9 34 18 49 55 30 16 -8 29 -19 29 -24z
m1117 -674 c0 -8 -4 -12 -9 -9 -5 3 -6 10 -3 15 9 13 12 11 12 -6z"/>
<path d="M3620 8276 c0 -2 7 -7 16 -10 8 -3 12 -2 9 4 -6 10 -25 14 -25 6z"/>
<path d="M3840 8080 c0 -5 5 -10 11 -10 5 0 7 5 4 10 -3 6 -8 10 -11 10 -2 0
-4 -4 -4 -10z"/>
<path d="M3975 7961 c-6 -11 13 -26 22 -17 4 3 1 6 -6 6 -7 0 -9 5 -6 10 3 6
4 10 1 10 -3 0 -7 -4 -11 -9z"/>
<path d="M2442 5393 c-49 -24 -152 -140 -237 -268 l-76 -113 -57 13 c-77 18
-252 42 -396 55 -127 11 -276 2 -394 -25 -116 -27 -221 -95 -259 -169 -28 -54
-103 -320 -103 -366 1 -290 359 -607 1125 -995 630 -319 973 -445 3100 -1140
297 -97 558 -182 580 -190 22 -7 121 -39 220 -70 99 -31 214 -67 255 -80 601
-189 1176 -335 1480 -376 52 -7 163 -13 245 -13 217 0 316 28 412 117 53 49
69 79 129 238 56 151 64 189 49 260 -30 154 -168 281 -447 414 -195 92 -311
134 -1023 371 -286 95 -622 209 -746 254 l-227 82 -22 61 c-115 317 -637 1106
-940 1421 -104 108 -191 176 -288 223 -63 31 -87 38 -170 44 -53 4 -158 19
-232 33 -74 15 -169 33 -210 41 -106 20 -391 62 -547 80 -73 8 -159 23 -190
32 -47 14 -108 17 -323 19 -206 2 -303 7 -435 24 -93 12 -178 26 -187 31 -24
13 -48 11 -86 -8z m422 -81 c3 -5 -1 -9 -9 -9 -8 0 -12 4 -9 9 3 4 7 8 9 8 2
0 6 -4 9 -8z m-514 -43 c0 -25 -67 -106 -78 -94 -4 4 -1 10 6 12 6 3 12 13 12
24 0 10 4 19 8 19 5 0 15 11 22 25 14 26 30 33 30 14z m363 -26 c-3 -7 -11
-13 -19 -13 -8 0 -14 6 -14 13 0 7 8 13 19 13 11 0 17 -5 14 -13z m1997 -217
c25 -8 80 -24 124 -36 91 -24 162 -54 173 -74 4 -7 18 -18 30 -25 13 -6 22
-15 21 -19 -3 -15 15 -42 28 -42 8 0 18 -8 21 -17 9 -23 23 -37 47 -46 11 -4
16 -13 12 -23 -3 -8 -2 -13 3 -9 5 3 15 -8 22 -24 7 -16 16 -28 19 -26 3 2 12
-5 19 -17 11 -17 10 -19 -6 -14 -10 3 -61 17 -113 31 -52 15 -102 29 -110 32
-8 3 -26 7 -39 9 -13 2 -31 6 -40 10 -9 4 -19 8 -23 9 -5 2 -9 3 -10 5 -5 3
-42 11 -58 12 -8 0 -20 5 -27 10 -7 5 -17 7 -22 4 -5 -4 -12 -2 -16 4 -3 5
-19 10 -36 10 -16 0 -29 3 -29 8 0 4 -16 8 -37 9 -20 1 -39 7 -43 14 -4 6 -14
9 -21 7 -8 -3 -45 4 -84 14 -38 11 -76 20 -82 20 -15 2 -18 78 -3 78 6 0 10 7
10 15 0 9 11 27 25 40 13 14 31 25 40 25 8 0 15 7 15 16 0 8 4 12 10 9 5 -3
17 -2 26 3 18 10 81 1 154 -22z m-1827 -176 c3 -11 1 -18 -4 -14 -5 3 -9 12
-9 20 0 20 7 17 13 -6z m15 -65 c-3 -3 -9 2 -12 12 -6 14 -5 15 5 6 7 -7 10
-15 7 -18z m-1111 -661 c-7 -8 17 -34 32 -34 6 0 11 -4 11 -10 0 -5 6 -9 13
-7 6 1 11 -4 10 -10 -2 -7 6 -13 17 -13 11 0 20 -5 20 -11 0 -5 5 -7 10 -4 6
3 13 -1 16 -10 4 -9 13 -14 20 -11 8 3 14 -1 14 -10 0 -11 6 -13 20 -9 14 5
20 2 20 -9 0 -10 9 -16 21 -16 19 0 69 -20 131 -51 10 -5 24 -9 33 -9 9 0 12
-6 8 -17 -5 -13 -2 -15 16 -10 14 3 24 0 28 -9 3 -8 14 -14 24 -14 10 0 19 -4
19 -8 0 -5 14 -9 32 -10 17 0 34 -6 38 -13 4 -6 13 -8 19 -5 6 4 11 0 11 -8 0
-10 9 -16 25 -16 14 0 25 -5 25 -11 0 -5 4 -8 8 -5 5 3 21 -2 36 -10 16 -7 32
-14 38 -14 20 0 90 -69 82 -82 -4 -6 1 -8 12 -6 15 3 19 11 17 43 -2 29 0 36
7 25 5 -8 10 -25 10 -37 0 -13 9 -32 20 -43 11 -11 20 -27 20 -35 0 -8 5 -15
10 -15 6 0 10 -4 10 -10 0 -18 -35 -11 -50 10 -8 11 -24 20 -37 20 -12 0 -28
8 -35 18 -7 9 -22 19 -33 20 -11 2 -21 8 -23 13 -2 5 -10 9 -18 9 -8 0 -14 7
-14 15 0 8 -9 15 -20 15 -11 0 -20 6 -20 13 0 8 -3 8 -9 -2 -7 -12 -13 -12
-24 -3 -7 7 -18 8 -22 4 -5 -4 -5 1 -2 11 5 12 1 17 -13 17 -11 0 -20 4 -20 9
0 5 -11 8 -25 7 -13 -2 -22 1 -19 5 3 5 -7 11 -21 15 -13 3 -22 10 -19 15 3 5
-6 9 -20 9 -14 0 -26 5 -26 10 0 6 -9 10 -20 10 -11 0 -20 5 -20 10 0 6 -6 10
-12 9 -26 -3 -39 1 -33 11 3 6 -3 10 -14 10 -12 0 -21 7 -21 15 0 8 -3 14 -7
14 -23 -4 -43 2 -38 11 3 6 -3 10 -14 10 -12 0 -21 5 -21 11 0 6 -7 9 -15 5
-8 -3 -25 5 -39 19 -14 14 -32 25 -40 25 -8 0 -18 5 -21 10 -4 6 -11 8 -16 5
-5 -4 -12 1 -15 9 -3 9 -15 16 -25 16 -10 0 -19 5 -19 11 0 7 -10 9 -25 6 -30
-5 -77 27 -59 40 6 5 13 16 17 26 3 9 12 17 18 17 7 0 10 -3 6 -6z m1859 -713
c-3 -5 0 -9 7 -8 35 1 58 -4 53 -12 -4 -5 2 -8 11 -6 10 1 26 -2 36 -7 10 -5
31 -12 45 -14 15 -3 29 -8 32 -12 3 -4 21 -9 40 -10 19 -2 37 -8 38 -13 2 -5
19 -9 37 -9 21 0 35 -6 39 -16 4 -9 9 -14 13 -11 3 3 20 0 38 -8 19 -7 36 -11
39 -8 3 4 15 -2 26 -12 10 -9 26 -15 34 -12 9 4 22 0 30 -8 8 -8 28 -15 45
-15 16 0 33 -4 36 -10 3 -5 15 -10 26 -10 10 0 19 -5 19 -11 0 -6 10 -9 23 -8
12 2 32 -3 45 -10 13 -7 28 -10 35 -8 7 2 27 -2 45 -9 35 -14 34 -14 58 -14 8
0 13 -4 10 -9 -3 -5 13 -9 36 -9 22 -1 45 -7 49 -14 5 -7 9 -9 9 -4 0 5 7 3
15 -4 8 -6 18 -9 23 -6 5 3 18 -1 28 -9 10 -8 29 -15 42 -15 12 0 22 -4 22
-10 0 -5 10 -10 23 -9 21 0 21 1 2 9 -16 7 -17 9 -3 9 9 1 20 -3 23 -9 3 -5
19 -10 36 -10 16 0 29 -4 29 -9 0 -5 11 -9 25 -10 48 -3 55 -4 55 -13 0 -4 34
-6 75 -4 55 2 75 0 75 -9 0 -7 13 -18 30 -25 16 -7 29 -15 28 -19 -2 -19 4
-29 23 -34 12 -3 18 -10 15 -15 -3 -5 6 -15 19 -22 13 -7 22 -17 19 -22 -3 -4
2 -8 11 -8 10 0 13 -5 9 -12 -5 -8 -2 -9 10 -5 10 4 19 1 22 -8 4 -8 10 -12
15 -9 5 3 9 -2 9 -11 0 -9 5 -13 10 -10 6 3 10 -1 10 -10 0 -9 4 -14 9 -11 5
3 12 -1 15 -10 3 -8 10 -13 15 -10 4 3 21 -6 37 -19 16 -14 25 -25 21 -25 -5
0 -2 -7 7 -15 8 -8 20 -15 26 -15 15 0 44 -29 36 -37 -3 -3 -12 -1 -20 6 -8 6
-18 11 -22 10 -23 -4 -45 2 -39 11 4 6 -8 10 -29 10 -20 0 -36 5 -36 10 0 6
-3 9 -7 9 -29 -5 -53 3 -53 17 0 8 -4 13 -10 9 -14 -9 -61 6 -54 17 4 6 -6 9
-22 8 -45 -3 -56 -1 -48 11 4 7 0 9 -14 5 -11 -4 -26 -1 -33 7 -8 7 -25 13
-39 14 -14 1 -26 7 -29 14 -2 8 -5 8 -10 0 -6 -9 -15 -8 -34 2 -15 8 -25 16
-22 19 2 2 -14 5 -38 7 -23 1 -44 5 -47 10 -3 4 -16 8 -30 9 -14 0 -26 6 -28
12 -2 5 -19 10 -38 10 -19 0 -34 5 -34 10 0 6 -13 10 -30 10 -18 0 -30 5 -30
13 0 7 -10 13 -22 14 -51 1 -59 3 -52 15 5 8 2 9 -11 4 -10 -4 -28 0 -42 10
-14 8 -31 13 -38 10 -7 -2 -19 2 -26 10 -7 8 -18 13 -25 10 -8 -3 -21 3 -30
12 -10 9 -19 16 -21 15 -9 -8 -33 -1 -28 7 4 6 -12 10 -42 10 -35 0 -44 3 -33
10 11 7 7 10 -17 10 -18 0 -33 5 -33 10 0 6 -5 10 -11 10 -5 0 -7 -5 -4 -11 7
-10 -34 9 -45 22 -3 3 -15 5 -27 6 -48 2 -53 3 -51 16 2 7 -9 12 -29 12 -17 0
-29 3 -27 7 5 7 -15 11 -58 11 -10 0 -18 6 -18 14 0 10 -8 13 -29 10 -17 -3
-38 1 -48 9 -10 7 -30 14 -45 14 -15 0 -30 5 -33 10 -3 6 -16 10 -27 10 -12 0
-18 3 -15 6 4 4 -7 14 -22 23 -41 22 -81 54 -81 64 0 11 -47 57 -59 57 -5 0
-8 9 -6 20 2 11 0 20 -6 20 -5 0 -9 5 -9 10 0 6 12 10 26 10 14 0 23 -4 20 -9z
m1404 -361 c0 -5 -2 -10 -4 -10 -3 0 -8 5 -11 10 -3 6 -1 10 4 10 6 0 11 -4
11 -10z m477 -410 c14 -11 32 -20 39 -20 8 0 14 -4 14 -9 0 -5 14 -11 30 -14
17 -4 30 -13 30 -21 0 -7 14 -19 30 -26 31 -13 40 -30 16 -30 -22 0 -66 26
-58 35 4 4 -3 6 -15 3 -27 -7 -58 14 -78 53 -9 16 -22 29 -30 29 -8 0 -15 5
-15 10 0 15 9 12 37 -10z m574 -134 c14 -3 44 -8 65 -12 85 -13 381 -87 534
-133 292 -87 449 -131 610 -171 171 -42 304 -87 325 -110 16 -18 15 -19 -12
-34 -16 -8 -74 -18 -129 -22 -54 -3 -103 -9 -109 -12 -15 -9 -69 -1 -76 10 -4
6 -20 8 -38 5 -20 -4 -35 -1 -45 8 -8 8 -31 15 -50 15 -20 0 -36 5 -36 10 0 6
-20 10 -45 10 -25 0 -45 4 -45 8 0 4 -17 9 -37 10 -21 2 -39 7 -41 12 -2 6
-16 10 -31 10 -15 0 -31 3 -35 8 -9 8 -14 9 -56 11 -20 1 -30 6 -30 17 0 8 -4
13 -9 9 -5 -3 -28 1 -50 9 -22 7 -38 10 -35 5 2 -5 -11 -2 -29 6 -19 8 -38 11
-42 7 -5 -4 -5 -1 -1 6 5 8 -1 12 -18 12 -14 0 -28 5 -31 10 -4 6 -15 8 -25 5
-10 -3 -21 -1 -25 5 -3 6 -11 8 -16 5 -5 -4 -9 -2 -9 3 0 6 -17 13 -37 16 -79
13 -88 15 -91 25 -2 6 -17 11 -33 11 -16 0 -29 4 -29 9 0 5 -15 9 -34 9 -18 0
-43 5 -54 11 -11 6 -28 11 -38 11 -9 0 -23 8 -31 18 -8 9 -11 11 -8 4 6 -11 3
-11 -16 0 -13 7 -26 15 -29 18 -3 3 -16 6 -30 8 -26 3 -42 23 -46 57 -1 11 -9
33 -18 50 -16 31 -6 49 24 41 8 -2 27 -7 41 -10z"/>
<path d="M9179 3763 c-13 -16 -12 -17 4 -4 16 13 21 21 13 21 -2 0 -10 -8 -17
-17z"/>
<path d="M9146 3723 c-6 -14 -5 -15 5 -6 7 7 10 15 7 18 -3 3 -9 -2 -12 -12z"/>
</g>
</svg>
