<?xml version="1.0" standalone="no"?>
<!DOCTYPE svg PUBLIC "-//W3C//DTD SVG 20010904//EN"
 "http://www.w3.org/TR/2001/REC-SVG-20010904/DTD/svg10.dtd">
<svg version="1.0" xmlns="http://www.w3.org/2000/svg"
 width="512.000000pt" height="512.000000pt" viewBox="0 0 512.000000 512.000000"
 preserveAspectRatio="xMidYMid meet">
<metadata>
Created by potrace 1.14, written by Peter Selinger 2001-2017
</metadata>
<g transform="translate(0.000000,512.000000) scale(0.100000,-0.100000)"
fill="#000000" stroke="none">
<path d="M1937 4554 c-1 -1 -87 -5 -192 -8 -247 -9 -287 -12 -427 -36 -268
-46 -428 -127 -587 -296 -121 -128 -171 -220 -203 -369 -19 -92 -15 -404 7
-543 2 -12 7 -62 10 -110 4 -48 8 -103 10 -124 2 -20 7 -87 10 -150 3 -62 7
-147 10 -188 2 -41 7 -122 10 -180 11 -180 22 -329 30 -390 2 -19 7 -55 10
-80 11 -97 14 -117 20 -165 6 -52 31 -234 41 -295 2 -19 9 -66 15 -105 5 -38
12 -83 15 -100 3 -16 15 -82 26 -145 24 -140 26 -149 32 -180 3 -13 8 -42 11
-63 10 -62 45 -168 72 -214 54 -92 193 -196 293 -219 56 -12 62 -13 125 -21
111 -13 441 -6 545 12 14 2 61 7 105 10 44 3 98 8 120 10 22 3 72 7 110 10 96
6 143 13 260 36 55 10 110 21 123 24 12 2 80 18 150 35 70 17 134 33 142 35 8
2 56 18 105 36 118 42 254 114 390 204 242 160 255 184 270 494 4 90 7 100 28
83 19 -16 69 -6 217 48 74 26 160 53 190 58 94 18 148 47 235 127 22 21 71 65
109 99 134 119 190 191 217 277 31 100 28 135 -37 355 -18 62 -40 152 -48 200
-32 181 -50 245 -97 341 -97 196 -201 294 -352 328 -84 19 -247 19 -368 -1
-109 -18 -108 -18 -104 9 2 12 6 69 9 127 4 58 8 116 11 130 3 14 6 68 7 121
1 83 -2 102 -24 150 -43 90 -107 145 -270 233 -48 26 -120 71 -160 101 -92 68
-145 94 -332 162 -219 80 -313 109 -381 119 -47 6 -501 13 -508 8z m1333 -911
c42 -38 51 -97 21 -135 -27 -34 -105 -71 -207 -98 -43 -12 -99 -28 -124 -35
-25 -8 -121 -37 -215 -66 -93 -28 -174 -54 -180 -57 -5 -4 -57 -21 -115 -38
-58 -17 -149 -45 -202 -62 -53 -17 -116 -34 -140 -37 -24 -3 -54 -8 -68 -10
-14 -2 -50 -7 -80 -10 -30 -3 -66 -8 -80 -10 -49 -7 -216 -18 -317 -20 -125
-2 -292 29 -373 70 -96 48 -256 150 -290 185 -3 3 -21 17 -41 32 -20 15 -41
40 -46 55 -21 62 25 131 94 140 35 4 45 -1 138 -71 97 -73 252 -168 284 -173
9 -1 50 -9 91 -17 83 -16 283 -12 435 8 17 3 74 10 127 16 54 6 126 20 160 30
242 73 308 94 428 134 74 25 223 71 330 102 107 32 213 66 235 75 58 27 99 24
135 -8z m429 -788 c209 -77 241 -112 249 -271 11 -230 -23 -284 -205 -321 -43
-8 -95 -24 -115 -33 l-38 -18 -1 46 c-6 255 -3 632 5 632 5 0 53 -16 105 -35z"/>
</g>
</svg>
