<svg xmlns="http://www.w3.org/2000/svg" xml:space="preserve" width="512pt" height="512pt" preserveAspectRatio="xMidYMid" version="1.0" viewBox="0 0 512 512"><path d="M401.997 50.115c-4.199.006-15.343 3.31-24.326 7.215-13.901 6.04-86.046 47.718-112.693 65.102-6.16 4.019-11.431 7.307-11.714 7.307-.282 0-2.133-1.49-4.111-3.31-1.979-1.82-7.65-5.39-12.601-7.932l-9.004-4.621-22.057.965c-12.13.53-39.183 1.934-60.116 3.117s-41.21 2.156-45.06 2.162c-3.849.006-12.11.613-18.356 1.348-13.097 1.542-14.633 2.22-36.711 16.231l-12.796 8.12.475 3.553c.262 1.954 2.457 22.255 4.877 45.113 10.63 100.401 21.898 194.397 23.362 194.896.359.122 5.18 2.808 10.714 5.969l10.062 5.745 31.06-.444c31.406-.45 64.11-2.58 101.832-6.627 15.291-1.641 16.825-1.966 20.56-4.363 4.64-2.977 17.358-8.918 19.331-9.03.732-.041 8.81 4.856 17.954 10.884 9.143 6.027 21.545 13.906 27.56 17.507s13.102 7.926 15.75 9.61c7.282 4.636 35.22 19.417 46.933 24.834 6.47 2.992 11.033 4.614 12.124 4.306 11.331-3.188 74.445-16.179 78.605-16.179h2.23l-.51-37.404c-.279-20.572-.6-37.516-.712-37.654-.374-.46-19.039 2.533-34.116 5.471-8.18 1.594-15.12 2.752-15.419 2.574-.893-.53-1.884-55.282-1.186-65.521l.644-9.456 10.168.558c5.592.306 15.702.813 22.465 1.126l12.295.569 1.1-22.18c1.176-23.702 4.052-59.026 5.011-61.524.545-1.421-.842-1.476-22.716-.894l-23.299.62-.008-2.978c-.018-6.649 1.878-54.862 2.294-58.318l.447-3.719h59.151l.596-10.28c.973-16.754 2.08-28.243 5.02-52.062 1.528-12.394 2.618-22.693 2.42-22.887-.504-.493-73.02-7.525-77.529-7.52zM358.74 155.54c.94-.027.995.734.995 1.984 0 4.346-3.396 21.646-7.485 38.125-4.092 16.492-5.946 20.854-14.086 33.14-4.646 7.013-10.134 12.82-15.047 15.922-2.84 1.792-4.655 2.256-8.643 2.213-5.973-.066-8.558-.968-11.889-4.151-7.067-6.753-13.85-26.994-15.94-47.561-.707-6.958-1.862-6.06 16.65-12.984 15.944-5.965 23.406-9.47 39.56-18.59 10.303-5.816 14.32-8.052 15.885-8.098m-144.084 8.555c1.503.049 2.322.148 2.47.297.506.505 1.263 10.825 1.763 24.018 1.776 46.94 6.434 138.33 7.408 145.338.592 4.263 4.186 3.64-57.299 9.91-21.414 2.182-44.131 4.554-50.485 5.268s-12.128 1.297-12.833 1.297c-1.58 0-2.124-2.48-6.154-27.998-3.49-22.095-4.694-32.09-7.965-66.058-1.25-12.993-4.193-36.026-6.538-51.184-5.322-34.41-5.372-35.034-2.866-35.961 3.874-1.433 23.103-2.518 44.407-2.506 12.03.007 37.13-.667 55.776-1.498 17.151-.765 27.808-1.07 32.316-.923m101.048 117.669 2.429 9.511c3.476 13.616 13.969 51.525 17.466 63.104 1.874 6.203 2.6 9.815 1.962 9.768-.557-.042-3.571-1.593-6.699-3.446-6.897-4.085-28.758-14.26-33.904-15.78-2.045-.605-3.718-1.563-3.718-2.128 0-.795 13.81-38.385 21.337-58.08zm-162.253 77.562c1.428-.063 2.911.278 4.327 1.102 5.838 3.4 6.555 10.423 1.499 14.677-3.785 3.185-7.24 2.952-10.927-.734-2.142-2.142-2.975-3.758-2.975-5.771 0-5.272 3.792-9.087 8.076-9.274" style="fill:#000;stroke-width:1"/></svg>